# 3ds Max Wavefront OBJ Exporter v0.99 - (c)2007 guruware
# File Created: 12.02.2023 16:18:16

mtllib DETGEN.mtl

#
# object Obj_000015
#

v  0.08408 1.08035 0.72487
v  -1.88040 2.21383 0.72487
v  -1.92651 2.12510 0.72487
v  0.30366 1.08035 0.72487
v  2.20919 -0.02391 0.72487
v  0.81067 0.81722 0.72487
v  0.81067 0.70279 0.72487
v  2.26042 0.06483 0.72487
# 8 vertices

vn 0.00000 0.00000 1.00000
# 1 vertex normals

vt -128.75441 44.62548 0.00000
vt -51.41269 0.00000 0.00000
vt -49.59737 3.49352 0.00000
vt -137.39925 44.62548 0.00000
vt -212.41988 88.10014 0.00000
vt -157.36009 54.98481 0.00000
vt -157.36009 59.48971 0.00000
vt -214.43686 84.60663 0.00000
# 8 texture coords

o Obj_000015
g Obj_000015
usemtl mat14
s 1
f 1/1/1 2/2/1 3/3/1 
f 2/2/1 1/1/1 4/4/1 
f 5/5/1 6/6/1 7/7/1 
f 6/6/1 5/5/1 8/8/1 
f 7/7/1 4/4/1 1/1/1 
f 4/4/1 7/7/1 6/6/1 
# 0 polygons - 6 triangles

#
# object Obj_000014
#

v  -1.92651 2.12510 -1.77513
v  -1.88040 2.21383 0.72487
v  -1.88040 2.21383 -1.77513
v  -1.92651 2.12510 0.72487
v  2.26042 0.06483 -1.77513
v  0.81067 0.81722 0.72487
v  2.26042 0.06483 0.72487
v  0.30366 1.08035 0.72487
v  2.20919 -0.02391 -1.77513
v  0.08408 1.08035 0.72487
v  0.81067 0.70279 0.72487
v  2.20919 -0.02391 0.72487
# 12 vertices

vn -0.88736 0.46108 -0.00000
vn 0.46064 0.88759 -0.00000
vn 0.00000 -0.00000 -1.00000
vn -0.46109 -0.88735 0.00000
vn 0.86603 -0.50000 0.00000
# 5 vertex normals

vt 19.76891 98.42519 0.00000
vt 23.70591 0.00000 0.00000
vt 23.70591 98.42519 0.00000
vt 19.76891 0.00000 0.00000
vt 229.30453 98.42519 0.00000
vt 164.99895 0.00000 0.00000
vt 229.30453 0.00000 0.00000
vt 142.51004 0.00000 0.00000
vt 45.63320 0.00000 0.00000
vt 45.63320 98.42519 0.00000
vt 51.41269 0.00000 0.00000
vt 212.41988 88.10014 0.00000
vt 49.59737 3.49352 0.00000
vt 214.43686 84.60663 0.00000
vt -45.62120 98.42519 0.00000
vt -134.82701 0.00000 0.00000
vt -45.62120 0.00000 0.00000
vt -167.06410 0.00000 0.00000
vt -229.11357 0.00000 0.00000
vt -229.11357 98.42519 0.00000
vt -29.91298 -0.00000 0.00000
vt -33.94694 98.42519 0.00000
vt -33.94694 -0.00000 0.00000
vt -29.91298 98.42519 0.00000
# 24 texture coords

o Obj_000014
g Obj_000014
usemtl Color_M00
s 1
f 9/9/2 10/10/2 11/11/2 
f 10/10/2 9/9/2 12/12/2 
f 13/13/3 14/14/3 15/15/3 
f 14/14/3 13/13/3 16/16/3 
f 16/16/3 13/13/3 10/17/3 
f 10/17/3 13/13/3 11/18/3 
f 11/19/4 17/20/4 9/21/4 
f 17/20/4 11/19/4 13/22/4 
f 9/23/5 18/24/5 12/25/5 
f 18/24/5 9/23/5 19/26/5 
f 19/26/5 9/23/5 20/27/5 
f 20/27/5 9/23/5 17/28/5 
f 20/29/6 13/30/6 15/31/6 
f 13/30/6 20/29/6 17/32/6 
# 0 polygons - 14 triangles

#
# object Obj_000013
#

v  1.73072 0.55823 -0.42513
v  1.97448 0.38222 -0.42513
v  1.72011 0.54127 -0.42513
v  1.98508 0.39918 -0.42513
v  1.97448 0.38222 0.72487
v  1.87917 0.79564 0.72487
v  1.72011 0.54127 0.72487
v  2.13353 0.63659 0.72487
v  1.87917 0.79564 -0.27513
v  1.73072 0.55823 -0.27513
v  2.13353 0.63659 -0.27513
v  1.98508 0.39918 -0.27513
# 12 vertices

vn 0.00000 -0.00000 -1.00000
vn 0.00000 0.00000 1.00000
vn -0.84789 0.53018 -0.00000
vn -0.84788 0.53019 -0.00000
vn -0.53018 -0.84789 0.00000
vn 0.53018 0.84789 -0.00000
vn 0.84789 -0.53018 0.00000
vn 0.84788 -0.53019 0.00000
# 8 vertex normals

vt 0.78740 0.00000 0.00000
vt 0.00000 11.81102 0.00000
vt 0.00000 0.00000 0.00000
vt 0.78740 11.81102 0.00000
vt -0.00000 11.81102 0.00000
vt -11.81102 0.00000 0.00000
vt -11.81102 11.81102 0.00000
vt 11.81102 39.37008 0.00000
vt 11.81102 0.00000 0.00000
vt 0.78740 39.37008 0.00000
vt 0.00000 45.27559 0.00000
vt 0.78740 45.27559 0.00000
vt -11.81102 45.27559 0.00000
vt 0.00000 39.37008 0.00000
vt -0.00000 0.00000 0.00000
vt -0.78740 39.37008 0.00000
vt -0.00000 45.27559 0.00000
vt -0.78740 45.27559 0.00000
vt -11.81102 39.37008 0.00000
# 19 texture coords

o Obj_000013
g Obj_000013
usemtl _Black_
s 1
f 21/33/7 22/34/7 23/35/7 
f 22/34/7 21/33/7 24/36/7 
f 25/37/8 26/38/8 27/35/8 
f 26/38/8 25/37/8 28/39/8 
f 29/40/9 27/35/9 26/41/9 
f 27/35/9 29/40/9 30/42/10 
f 27/35/9 30/42/10 23/43/10 
f 23/43/10 30/42/10 21/44/10 
f 22/45/11 27/35/11 23/43/11 
f 27/35/11 22/45/11 25/38/11 
f 28/41/12 29/46/12 26/35/12 
f 29/46/12 28/41/12 31/40/12 
f 25/47/13 32/48/14 28/38/13 
f 32/48/14 25/47/13 22/49/14 
f 32/48/14 22/49/14 24/50/14 
f 31/51/13 28/38/13 32/48/14 
# 0 polygons - 16 triangles

#
# object Obj_000012
#

v  1.83648 0.57572 -0.27513
v  2.01033 0.60855 -0.27513
v  1.94670 0.50680 -0.27513
v  1.90010 0.67747 -0.27513
# 4 vertices

vn 0.00000 -0.00000 -1.00000
# 1 vertex normals

vt 3.57893 3.16539 0.00000
vt 8.30333 8.28350 0.00000
vt 3.57893 8.28350 0.00000
vt 8.30333 3.16539 0.00000
# 4 texture coords

o Obj_000012
g Obj_000012
usemtl Material20
s 1
f 33/52/15 34/53/15 35/54/15 
f 34/53/15 33/52/15 36/55/15 
# 0 polygons - 2 triangles

#
# object Obj_000011
#

v  1.73072 0.55823 -0.27513
v  1.83648 0.57572 -0.27513
v  1.98508 0.39918 -0.27513
v  1.87917 0.79564 -0.27513
v  1.94670 0.50680 -0.27513
v  1.90010 0.67747 -0.27513
v  2.01033 0.60855 -0.27513
v  2.13353 0.63659 -0.27513
# 8 vertices

vn 0.00000 -0.00000 -1.00000
# 1 vertex normals

vt 0.78740 0.00000 0.00000
vt 3.57893 3.16539 0.00000
vt 0.78740 11.81102 0.00000
vt 11.81102 0.00000 0.00000
vt 3.57893 8.28350 0.00000
vt 8.30333 3.16539 0.00000
vt 8.30333 8.28350 0.00000
vt 11.81102 11.81102 0.00000
# 8 texture coords

o Obj_000011
g Obj_000011
usemtl Material12
s 1
f 37/56/16 38/57/16 39/58/16 
f 38/57/16 37/56/16 40/59/16 
f 39/58/16 38/57/16 41/60/16 
f 38/57/16 40/59/16 42/61/16 
f 42/61/16 40/59/16 43/62/16 
f 43/62/16 40/59/16 44/63/16 
f 41/60/16 44/63/16 39/58/16 
f 44/63/16 41/60/16 43/62/16 
# 0 polygons - 8 triangles

#
# object Obj_000010
#

v  1.73072 0.55823 -0.27513
v  1.82136 0.50155 -0.31723
v  1.73072 0.55823 -0.42513
v  1.98508 0.39918 -0.27513
v  1.88071 0.46444 -0.31723
v  1.88071 0.46444 -0.38723
v  1.82136 0.50155 -0.38723
v  1.98508 0.39918 -0.42513
# 8 vertices

vn 0.53018 0.84789 0.00000
vn 0.53018 0.84789 -0.00000
# 2 vertex normals

vt 0.00000 39.37008 0.00000
vt 4.20887 41.02762 0.00000
vt 0.00000 45.27559 0.00000
vt 11.81102 39.37008 0.00000
vt 6.96478 41.02762 0.00000
vt 6.96478 43.78352 0.00000
vt 4.20887 43.78352 0.00000
vt 11.81102 45.27559 0.00000
# 8 texture coords

o Obj_000010
g Obj_000010
usemtl Material13
s 1
f 45/64/17 46/65/17 47/66/18 
f 46/65/17 45/64/17 48/67/17 
f 46/65/17 48/67/17 49/68/18 
f 49/68/18 48/67/17 50/69/17 
f 47/66/18 51/70/18 52/71/18 
f 51/70/18 47/66/18 46/65/17 
f 52/71/18 51/70/18 50/69/17 
f 52/71/18 50/69/17 48/67/17 
# 0 polygons - 8 triangles

#
# object Obj_000009
#

v  1.88071 0.46444 -0.31723
v  1.82136 0.50155 -0.38723
v  1.82136 0.50155 -0.31723
v  1.88071 0.46444 -0.38723
# 4 vertices

vn 0.53018 0.84789 -0.00000
# 1 vertex normals

vt 6.96478 41.02762 0.00000
vt 4.20887 43.78352 0.00000
vt 4.20887 41.02762 0.00000
vt 6.96478 43.78352 0.00000
# 4 texture coords

o Obj_000009
g Obj_000009
usemtl _auto_2
s 1
f 53/72/19 54/73/19 55/74/19 
f 54/73/19 53/72/19 56/75/19 
# 0 polygons - 2 triangles

#
# object Obj_000008
#

v  -0.57149 1.54580 -1.48560
v  -1.63659 2.09857 0.34440
v  -0.57149 1.54580 0.34440
v  -1.63659 2.09857 -1.48560
v  -1.64120 2.08969 -1.48560
v  -1.64120 2.08969 0.34440
v  -0.57610 1.53693 0.34440
v  -0.57610 1.53692 -1.48560
# 8 vertices

vn 0.46064 0.88759 -0.00000
vn -0.88755 0.46070 -0.00000
vn 0.00000 0.00000 1.00000
vn 0.88755 -0.46070 0.00000
vn 0.00000 -0.00000 -1.00000
vn -0.46064 -0.88759 0.00000
# 6 vertex normals

vt 1.00000 1.00000 0.98420
vt 0.00431 -0.00000 -0.00000
vt 1.00000 -0.00000 0.98420
vt 0.00431 1.00000 -0.00000
vt 0.98420 1.00000 0.00000
vt 1.00000 -0.00000 0.00431
vt 1.00000 1.00000 0.00431
vt 0.98420 -0.00000 0.00000
vt 0.99569 -0.00000 -0.00000
vt 1.00000 0.01580 -0.00000
vt 0.00000 0.98420 -0.00000
vt 1.00000 -0.00000 0.99569
vt 0.98420 1.00000 1.00000
vt 0.98420 -0.00000 1.00000
vt 1.00000 1.00000 0.99569
vt 0.00431 -0.00000 1.00000
vt 0.99569 1.00000 1.00000
vt 0.00000 0.01580 1.00000
vt 1.00000 0.98420 1.00000
vt 1.00000 1.00000 0.01580
vt 1.00000 -0.00000 0.01580
vt 0.00431 1.00000 1.00000
# 22 texture coords

o Obj_000008
g Obj_000008
usemtl Material__25
s 1
f 57/76/20 58/77/20 59/78/20 
f 58/77/20 57/76/20 60/79/20 
f 61/80/21 58/81/21 60/82/21 
f 58/81/21 61/80/21 62/83/21 
f 63/79/22 58/84/22 62/85/22 
f 58/84/22 63/79/22 59/86/22 
f 63/87/23 57/88/23 59/89/23 
f 57/88/23 63/87/23 64/90/23 
f 60/91/24 64/92/24 61/93/24 
f 64/92/24 60/91/24 57/94/24 
f 61/95/25 63/91/25 62/96/25 
f 63/91/25 61/95/25 64/97/25 
# 0 polygons - 12 triangles

#
# object Obj_000007
#

v  0.71551 0.87787 -1.48560
v  -0.34959 1.43064 0.34440
v  0.71551 0.87787 0.34440
v  -0.34959 1.43064 -1.48560
v  -0.35420 1.42176 -1.48560
v  -0.35420 1.42176 0.34440
v  0.71090 0.86899 0.34440
v  0.71090 0.86899 -1.48560
# 8 vertices

vn 0.46064 0.88759 -0.00000
vn -0.88759 0.46063 -0.00000
vn 0.00000 0.00000 1.00000
vn 0.88759 -0.46063 0.00000
vn 0.00000 -0.00000 -1.00000
vn -0.46064 -0.88759 0.00000
# 6 vertex normals

vt 1.00000 1.00000 0.98420
vt 0.00431 0.00000 0.00000
vt 1.00000 0.00000 0.98420
vt 0.00431 1.00000 0.00000
vt 0.98420 1.00000 0.00000
vt 1.00000 0.00000 0.00431
vt 1.00000 1.00000 0.00431
vt 0.98420 0.00000 0.00000
vt 0.99569 0.00000 0.00000
vt 1.00000 0.01580 0.00000
vt 0.00000 0.98420 0.00000
vt 1.00000 0.00000 0.99569
vt 0.98420 1.00000 1.00000
vt 0.98420 0.00000 1.00000
vt 1.00000 1.00000 0.99569
vt 0.00431 0.00000 1.00000
vt 0.99569 1.00000 1.00000
vt 0.00000 0.01580 1.00000
vt 1.00000 0.98420 1.00000
vt 1.00000 1.00000 0.01580
vt 1.00000 0.00000 0.01580
vt 0.00431 1.00000 1.00000
# 22 texture coords

o Obj_000007
g Obj_000007
usemtl Material__26
s 1
f 65/98/26 66/99/26 67/100/26 
f 66/99/26 65/98/26 68/101/26 
f 69/102/27 66/103/27 68/104/27 
f 66/103/27 69/102/27 70/105/27 
f 71/101/28 66/106/28 70/107/28 
f 66/106/28 71/101/28 67/108/28 
f 71/109/29 65/110/29 67/111/29 
f 65/110/29 71/109/29 72/112/29 
f 68/113/30 72/114/30 69/115/30 
f 72/114/30 68/113/30 65/116/30 
f 69/117/31 71/113/31 70/118/31 
f 71/113/31 69/117/31 72/119/31 
# 0 polygons - 12 triangles

#
# object Obj_000006
#

v  2.00251 0.20994 -1.48560
v  0.93741 0.76271 0.34440
v  2.00251 0.20994 0.34440
v  0.93741 0.76271 -1.48560
v  0.93280 0.75383 -1.48560
v  0.93280 0.75383 0.34440
v  1.99790 0.20106 0.34440
v  1.99790 0.20106 -1.48560
# 8 vertices

vn 0.46064 0.88759 -0.00000
vn -0.88755 0.46070 -0.00000
vn 0.00000 0.00000 1.00000
vn 0.88755 -0.46070 0.00000
vn 0.00000 -0.00000 -1.00000
vn -0.46064 -0.88759 0.00000
# 6 vertex normals

vt 1.00000 1.00000 0.98420
vt 0.00431 -0.00000 -0.00000
vt 1.00000 -0.00000 0.98420
vt 0.00431 1.00000 -0.00000
vt 0.98420 1.00000 0.00000
vt 1.00000 -0.00000 0.00431
vt 1.00000 1.00000 0.00431
vt 0.98420 -0.00000 0.00000
vt 0.99569 -0.00000 -0.00000
vt 1.00000 0.01580 -0.00000
vt -0.00000 0.98420 -0.00000
vt 1.00000 -0.00000 0.99569
vt 0.98420 1.00000 1.00000
vt 0.98420 -0.00000 1.00000
vt 1.00000 1.00000 0.99569
vt 0.00431 -0.00000 1.00000
vt 0.99569 1.00000 1.00000
vt 0.00000 0.01580 1.00000
vt 1.00000 0.98420 1.00000
vt 1.00000 1.00000 0.01580
vt 1.00000 -0.00000 0.01580
vt 0.00431 1.00000 1.00000
# 22 texture coords

o Obj_000006
g Obj_000006
usemtl Material__27
s 1
f 73/120/32 74/121/32 75/122/32 
f 74/121/32 73/120/32 76/123/32 
f 77/124/33 74/125/33 76/126/33 
f 74/125/33 77/124/33 78/127/33 
f 79/123/34 74/128/34 78/129/34 
f 74/128/34 79/123/34 75/130/34 
f 79/131/35 73/132/35 75/133/35 
f 73/132/35 79/131/35 80/134/35 
f 76/135/36 80/136/36 77/137/36 
f 80/136/36 76/135/36 73/138/36 
f 77/139/37 79/135/37 78/140/37 
f 79/135/37 77/139/37 80/141/37 
# 0 polygons - 12 triangles

#
# object Obj_000005
#

v  1.95081 0.11035 -1.48560
v  0.88571 0.66312 0.34440
v  1.95081 0.11035 0.34440
v  0.88571 0.66312 -1.48560
v  0.88110 0.65424 -1.48560
v  0.88110 0.65424 0.34440
v  1.94621 0.10147 0.34440
v  1.94621 0.10147 -1.48560
# 8 vertices

vn 0.46064 0.88759 -0.00000
vn -0.88759 0.46063 -0.00000
vn 0.00000 0.00000 1.00000
vn 0.88759 -0.46063 0.00000
vn 0.00000 -0.00000 -1.00000
vn -0.46064 -0.88759 0.00000
# 6 vertex normals

vt 1.00000 1.00000 0.98420
vt 0.00431 0.00000 0.00000
vt 1.00000 0.00000 0.98420
vt 0.00431 1.00000 0.00000
vt 0.98420 1.00000 0.00000
vt 1.00000 0.00000 0.00431
vt 1.00000 1.00000 0.00431
vt 0.98420 0.00000 0.00000
vt 0.99569 0.00000 0.00000
vt 1.00000 0.01580 0.00000
vt 0.00000 0.98420 0.00000
vt 1.00000 0.00000 0.99569
vt 0.98420 1.00000 1.00000
vt 0.98420 0.00000 1.00000
vt 1.00000 1.00000 0.99569
vt 0.00431 0.00000 1.00000
vt 0.99569 1.00000 1.00000
vt 0.00000 0.01580 1.00000
vt 1.00000 0.98420 1.00000
vt 1.00000 1.00000 0.01580
vt 1.00000 0.00000 0.01580
vt 0.00431 1.00000 1.00000
# 22 texture coords

o Obj_000005
g Obj_000005
usemtl Material__28
s 1
f 81/142/38 82/143/38 83/144/38 
f 82/143/38 81/142/38 84/145/38 
f 85/146/39 82/147/39 84/148/39 
f 82/147/39 85/146/39 86/149/39 
f 87/145/40 82/150/40 86/151/40 
f 82/150/40 87/145/40 83/152/40 
f 87/153/41 81/154/41 83/155/41 
f 81/154/41 87/153/41 88/156/41 
f 84/157/42 88/158/42 85/159/42 
f 88/158/42 84/157/42 81/160/42 
f 85/161/43 87/157/43 86/162/43 
f 87/157/43 85/161/43 88/163/43 
# 0 polygons - 12 triangles

#
# object Obj_000004
#

v  -0.62319 1.44621 -1.48560
v  -1.68829 1.99898 0.34440
v  -0.62319 1.44621 0.34440
v  -1.68829 1.99898 -1.48560
v  -1.69290 1.99010 -1.48560
v  -1.69290 1.99010 0.34440
v  -0.62780 1.43733 0.34440
v  -0.62780 1.43733 -1.48560
# 8 vertices

vn 0.46064 0.88759 -0.00000
vn -0.88759 0.46063 -0.00000
vn 0.00000 0.00000 1.00000
vn 0.88759 -0.46063 0.00000
vn 0.00000 -0.00000 -1.00000
vn -0.46064 -0.88759 0.00000
# 6 vertex normals

vt 1.00000 1.00000 0.98420
vt 0.00431 0.00000 -0.00000
vt 1.00000 0.00000 0.98420
vt 0.00431 1.00000 -0.00000
vt 0.98420 1.00000 0.00000
vt 1.00000 0.00000 0.00431
vt 1.00000 1.00000 0.00431
vt 0.98420 0.00000 0.00000
vt 0.00431 1.00000 0.00000
vt 0.99569 -0.00000 0.00000
vt 1.00000 0.01580 0.00000
vt 0.00000 0.98420 0.00000
vt 1.00000 0.00000 0.99569
vt 0.98420 1.00000 1.00000
vt 0.98420 0.00000 1.00000
vt 1.00000 1.00000 0.99569
vt 0.00431 -0.00000 1.00000
vt 0.99569 1.00000 1.00000
vt 0.00000 0.01580 1.00000
vt 1.00000 0.98420 1.00000
vt 1.00000 1.00000 0.01580
vt 0.00431 0.00000 1.00000
vt 1.00000 0.00000 0.01580
vt 0.00431 1.00000 1.00000
# 24 texture coords

o Obj_000004
g Obj_000004
usemtl Material__30
s 1
f 89/164/44 90/165/44 91/166/44 
f 90/165/44 89/164/44 92/167/44 
f 93/168/45 90/169/45 92/170/45 
f 90/169/45 93/168/45 94/171/45 
f 95/172/46 90/173/46 94/174/46 
f 90/173/46 95/172/46 91/175/46 
f 95/176/47 89/177/47 91/178/47 
f 89/177/47 95/176/47 96/179/47 
f 92/180/48 96/181/48 93/182/48 
f 96/181/48 92/180/48 89/183/48 
f 93/184/49 95/185/49 94/186/49 
f 95/185/49 93/184/49 96/187/49 
# 0 polygons - 12 triangles

#
# object Obj_000003
#

v  0.66381 0.77828 -1.48560
v  -0.40129 1.33105 0.34440
v  0.66381 0.77828 0.34440
v  -0.40129 1.33105 -1.48560
v  -0.40590 1.32217 -1.48560
v  -0.40590 1.32217 0.34440
v  0.65920 0.76940 0.34440
v  0.65920 0.76940 -1.48560
# 8 vertices

vn 0.46064 0.88759 -0.00000
vn -0.88759 0.46063 -0.00000
vn 0.00000 0.00000 1.00000
vn 0.88759 -0.46063 0.00000
vn 0.00000 -0.00000 -1.00000
vn -0.46064 -0.88759 0.00000
# 6 vertex normals

vt 1.00000 1.00000 0.98420
vt 0.00431 0.00000 -0.00000
vt 1.00000 0.00000 0.98420
vt 0.00431 1.00000 -0.00000
vt 0.98420 1.00000 0.00000
vt 1.00000 0.00000 0.00431
vt 1.00000 1.00000 0.00431
vt 0.98420 0.00000 0.00000
vt 0.00431 1.00000 0.00000
vt 0.99569 -0.00000 0.00000
vt 1.00000 0.01580 0.00000
vt 0.00000 0.98420 0.00000
vt 1.00000 0.00000 0.99569
vt 0.98420 1.00000 1.00000
vt 0.98420 0.00000 1.00000
vt 1.00000 1.00000 0.99569
vt 0.00431 -0.00000 1.00000
vt 0.99569 1.00000 1.00000
vt 0.00000 0.01580 1.00000
vt 1.00000 0.98420 1.00000
vt 1.00000 1.00000 0.01580
vt 0.00431 0.00000 1.00000
vt 1.00000 0.00000 0.01580
vt 0.00431 1.00000 1.00000
# 24 texture coords

o Obj_000003
g Obj_000003
usemtl Material__29
s 1
f 97/188/50 98/189/50 99/190/50 
f 98/189/50 97/188/50 100/191/50 
f 101/192/51 98/193/51 100/194/51 
f 98/193/51 101/192/51 102/195/51 
f 103/196/52 98/197/52 102/198/52 
f 98/197/52 103/196/52 99/199/52 
f 103/200/53 97/201/53 99/202/53 
f 97/201/53 103/200/53 104/203/53 
f 100/204/54 104/205/54 101/206/54 
f 104/205/54 100/204/54 97/207/54 
f 101/208/55 103/209/55 102/210/55 
f 103/209/55 101/208/55 104/211/55 
# 0 polygons - 12 triangles

#
# object Obj_000002
#

v  -3.76888 -1.48649 0.72487
v  -3.76888 3.84351 0.82487
v  -3.76888 3.84351 0.72487
v  -3.76888 -1.48649 0.82487
v  3.75396 -1.48649 0.82487
v  3.75396 -1.48649 0.72487
v  3.75396 3.84351 0.72487
v  3.75396 3.84351 0.82487
# 8 vertices

vn -1.00000 0.00000 -0.00000
vn 0.00000 -1.00000 0.00000
vn 1.00000 0.00000 -0.00000
vn 0.00000 -0.00000 -1.00000
vn 0.00000 1.00000 -0.00000
vn 0.00000 0.00000 1.00000
# 6 vertex normals

vt -209.84251 3.93701 0.00000
vt 0.00000 0.00000 0.00000
vt 0.00000 3.93701 0.00000
vt -209.84251 0.00000 0.00000
vt -189.37007 0.00000 0.00000
vt -189.37007 3.93701 0.00000
vt 209.84251 0.00000 0.00000
vt 209.84251 3.93701 0.00000
vt 189.37007 0.00000 0.00000
vt 0.00000 209.84251 0.00000
vt 189.37007 209.84251 0.00000
vt 189.37007 3.93701 0.00000
vt -189.37007 209.84251 0.00000
# 13 texture coords

o Obj_000002
g Obj_000002
usemtl Material23
s 1
f 105/212/56 106/213/56 107/214/56 
f 106/213/56 105/212/56 108/215/56 
f 105/214/57 109/216/57 108/213/57 
f 109/216/57 105/214/57 110/217/57 
f 109/218/58 111/214/58 112/213/58 
f 111/214/58 109/218/58 110/219/58 
f 111/220/59 105/221/59 107/213/59 
f 105/221/59 111/220/59 110/222/59 
f 111/223/60 106/213/60 112/220/60 
f 106/213/60 111/223/60 107/214/60 
f 109/224/61 106/213/61 108/221/61 
f 106/213/61 109/224/61 112/216/61 
# 0 polygons - 12 triangles

#
# object Obj_000001
#

v  28.34267 0.00000 -19.24721
v  28.34187 0.00000 -18.03867
v  28.34187 0.00000 -19.24721
v  23.18087 0.00000 -18.03867
v  23.18167 0.00000 -18.03787
v  23.18167 0.00000 -15.35867
v  28.34267 0.00000 -18.03787
v  23.18087 0.00000 -15.35787
v  28.34187 0.00000 -15.35787
v  28.34267 0.00000 -15.35867
v  28.34187 0.00000 -13.77867
v  24.29450 0.00000 -13.77787
v  24.29450 0.00000 -13.77867
v  28.34267 0.00000 -13.77787
# 14 vertices

vn 0.00000 -1.00000 -0.00000
# 1 vertex normals

vt -70.97984 74.40936 0.00000
vt -70.97670 69.65131 0.00000
vt -70.97670 74.40936 0.00000
vt -50.65780 69.65131 0.00000
vt -50.66095 69.64816 0.00000
vt -50.66095 59.10013 0.00000
vt -70.97984 69.64816 0.00000
vt -50.65780 59.09698 0.00000
vt -70.97670 59.09698 0.00000
vt -70.97984 59.10013 0.00000
vt -70.97670 52.87966 0.00000
vt -55.04216 52.87651 0.00000
vt -55.04216 52.87966 0.00000
vt -70.97984 52.87651 0.00000
# 14 texture coords

o Obj_000001
g Obj_000001
usemtl _auto_2
s 1
f 113/225/62 114/226/62 115/227/62 
f 116/228/62 117/229/62 118/230/62 
f 117/229/62 116/228/62 114/226/62 
f 117/229/62 114/226/62 119/231/62 
f 119/231/62 114/226/62 113/225/62 
f 120/232/62 118/230/62 121/233/62 
f 118/230/62 120/232/62 116/228/62 
f 121/233/62 118/230/62 122/234/62 
f 121/233/62 122/234/62 123/235/62 
f 123/235/62 124/236/62 125/237/62 
f 124/236/62 123/235/62 126/238/62 
f 126/238/62 123/235/62 122/234/62 
# 0 polygons - 12 triangles

