# 3ds Max Wavefront OBJ Exporter v0.99 - (c)2007 guruware
# File Created: 11.02.2023 13:42:31

mtllib DETGEN.mtl

#
# object Obj_000015
#

v  0.084084 0.100000 -0.108129
v  -1.880397 0.100000 1.025358
v  -1.926505 0.100000 0.936623
v  0.303662 0.100000 -0.108129
v  2.209186 0.100000 -1.212386
v  0.810668 0.100000 -0.371256
v  0.810668 0.100000 -0.485681
v  2.260417 0.100000 -1.123650
# 8 vertices

vn 0.000000 -1.000000 -0.000000
# 1 vertex normals

vt -128.754410 44.625484 0.000000
vt -51.412689 0.000000 0.000000
vt -49.597374 3.493516 0.000000
vt -137.399246 44.625484 0.000000
vt -212.419876 88.100143 0.000000
vt -157.360092 54.984810 0.000000
vt -157.360092 59.489712 0.000000
vt -214.436859 84.606628 0.000000
# 8 texture coords

o Obj_000015
g Obj_000015
usemtl mat14
s 1
f 1/1/1 2/2/1 3/3/1 
f 2/2/1 1/1/1 4/4/1 
f 5/5/1 6/6/1 7/7/1 
f 6/6/1 5/5/1 8/8/1 
f 7/7/1 4/4/1 1/1/1 
f 4/4/1 7/7/1 6/6/1 
# 0 polygons - 6 triangles

#
# object Obj_000014
#

v  -1.926505 2.600000 0.936623
v  -1.880397 0.100000 1.025358
v  -1.880397 2.600000 1.025358
v  -1.926505 0.100000 0.936623
v  2.260417 2.600000 -1.123650
v  0.810668 0.100000 -0.371256
v  2.260417 0.100000 -1.123650
v  0.303662 0.100000 -0.108129
v  2.209186 2.600000 -1.212386
v  0.084084 0.100000 -0.108129
v  0.810668 0.100000 -0.485681
v  2.209186 0.100000 -1.212386
# 12 vertices

vn -0.887356 0.000000 0.461084
vn 0.460641 0.000000 0.887586
vn 0.460642 0.000000 0.887586
vn 0.000000 1.000000 -0.000000
vn -0.461091 -0.000000 -0.887353
vn -0.461091 0.000000 -0.887353
vn 0.866025 0.000000 -0.500000
# 7 vertex normals

vt 19.768906 98.425194 0.000000
vt 23.705914 0.000000 0.000000
vt 23.705914 98.425194 0.000000
vt 19.768906 0.000000 0.000000
vt 229.304535 98.425194 0.000000
vt 164.998947 0.000000 0.000000
vt 229.304535 0.000000 0.000000
vt 142.510040 0.000000 0.000000
vt 45.633202 0.000000 0.000000
vt 45.633202 98.425194 0.000000
vt 51.412689 0.000000 0.000000
vt 212.419876 88.100143 0.000000
vt 49.597374 3.493516 0.000000
vt 214.436859 84.606628 0.000000
vt -45.621204 98.425194 0.000000
vt -134.827011 0.000000 0.000000
vt -45.621204 0.000000 0.000000
vt -167.064102 0.000000 0.000000
vt -229.113571 0.000000 0.000000
vt -229.113571 98.425194 0.000000
vt -29.912975 -0.000000 0.000000
vt -33.946941 98.425194 0.000000
vt -33.946941 -0.000000 0.000000
vt -29.912975 98.425194 0.000000
# 24 texture coords

o Obj_000014
g Obj_000014
usemtl Color_M00
s 1
f 9/9/2 10/10/2 11/11/2 
f 10/10/2 9/9/2 12/12/2 
f 13/13/3 14/14/3 15/15/4 
f 14/14/3 13/13/3 16/16/3 
f 16/16/3 13/13/3 10/17/3 
f 10/17/3 13/13/3 11/18/3 
f 11/19/5 17/20/5 9/21/5 
f 17/20/5 11/19/5 13/22/5 
f 9/23/6 18/24/7 12/25/7 
f 18/24/7 9/23/6 19/26/6 
f 19/26/6 9/23/6 20/27/6 
f 20/27/6 9/23/6 17/28/7 
f 20/29/8 13/30/8 15/31/8 
f 13/30/8 20/29/8 17/32/8 
# 0 polygons - 14 triangles

#
# object Obj_000013
#

v  1.730717 1.250000 -0.630244
v  1.974479 1.250000 -0.806256
v  1.720113 1.250000 -0.647202
v  1.985083 1.250000 -0.789298
v  1.974479 0.100000 -0.806256
v  1.879167 0.100000 -0.392836
v  1.720113 0.100000 -0.647202
v  2.133533 0.100000 -0.551890
v  1.879167 1.100000 -0.392836
v  1.730717 1.100000 -0.630244
v  2.133533 1.100000 -0.551890
v  1.985083 1.100000 -0.789298
# 12 vertices

vn 0.000000 1.000000 -0.000000
vn 0.000000 -1.000000 -0.000000
vn -0.847886 0.000000 0.530178
vn -0.847886 0.000000 0.530179
vn -0.847881 0.000000 0.530186
vn -0.847879 0.000000 0.530190
vn -0.530178 -0.000000 -0.847886
vn -0.530178 0.000000 -0.847886
vn 0.530178 0.000000 0.847886
vn 0.847886 -0.000000 -0.530179
vn 0.847881 -0.000000 -0.530186
vn 0.847879 0.000000 -0.530190
vn 0.847886 0.000000 -0.530178
# 13 vertex normals

vt 0.787402 0.000000 0.000000
vt 0.000000 11.811024 0.000000
vt 0.000000 0.000000 0.000000
vt 0.787402 11.811024 0.000000
vt -0.000000 11.811024 0.000000
vt -11.811024 0.000000 0.000000
vt -11.811024 11.811024 0.000000
vt 11.811024 39.370079 0.000000
vt 11.811024 0.000000 0.000000
vt 0.787402 39.370079 0.000000
vt 0.000000 45.275589 0.000000
vt 0.787402 45.275589 0.000000
vt -11.811024 45.275589 0.000000
vt 0.000000 39.370079 0.000000
vt -0.000000 0.000000 0.000000
vt -0.787402 39.370079 0.000000
vt -0.000000 45.275589 0.000000
vt -0.787402 45.275589 0.000000
vt -11.811024 39.370079 0.000000
# 19 texture coords

o Obj_000013
g Obj_000013
usemtl _Black_
s 1
f 21/33/9 22/34/9 23/35/9 
f 22/34/9 21/33/9 24/36/9 
f 25/37/10 26/38/10 27/35/10 
f 26/38/10 25/37/10 28/39/10 
f 29/40/11 27/35/12 26/41/12 
f 27/35/12 29/40/11 30/42/13 
f 27/35/12 30/42/13 23/43/14 
f 23/43/14 30/42/13 21/44/14 
f 22/45/15 27/35/15 23/43/16 
f 27/35/15 22/45/15 25/38/16 
f 28/41/17 29/46/17 26/35/17 
f 29/46/17 28/41/17 31/40/17 
f 25/47/18 32/48/19 28/38/18 
f 32/48/19 25/47/18 22/49/20 
f 32/48/19 22/49/20 24/50/20 
f 31/51/21 28/38/18 32/48/19 
# 0 polygons - 16 triangles

#
# object Obj_000012
#

v  1.836480 1.100000 -0.612752
v  2.010326 1.100000 -0.579929
v  1.946705 1.100000 -0.681676
v  1.900102 1.100000 -0.511006
# 4 vertices

vn 0.000000 1.000000 -0.000000
# 1 vertex normals

vt 3.578925 3.165394 0.000000
vt 8.303334 8.283504 0.000000
vt 3.578925 8.283504 0.000000
vt 8.303334 3.165394 0.000000
# 4 texture coords

o Obj_000012
g Obj_000012
usemtl Material20
s 1
f 33/52/22 34/53/22 35/54/22 
f 34/53/22 33/52/22 36/55/22 
# 0 polygons - 2 triangles

#
# object Obj_000011
#

v  1.730717 1.100000 -0.630244
v  1.836480 1.100000 -0.612752
v  1.985083 1.100000 -0.789298
v  1.879167 1.100000 -0.392836
v  1.946705 1.100000 -0.681676
v  1.900102 1.100000 -0.511006
v  2.010326 1.100000 -0.579929
v  2.133533 1.100000 -0.551890
# 8 vertices

vn 0.000000 1.000000 -0.000000
# 1 vertex normals

vt 0.787402 0.000000 0.000000
vt 3.578925 3.165394 0.000000
vt 0.787402 11.811024 0.000000
vt 11.811024 0.000000 0.000000
vt 3.578925 8.283504 0.000000
vt 8.303334 3.165394 0.000000
vt 8.303334 8.283504 0.000000
vt 11.811024 11.811024 0.000000
# 8 texture coords

o Obj_000011
g Obj_000011
usemtl Material12
s 1
f 37/56/23 38/57/23 39/58/23 
f 38/57/23 37/56/23 40/59/23 
f 39/58/23 38/57/23 41/60/23 
f 38/57/23 40/59/23 42/61/23 
f 42/61/23 40/59/23 43/62/23 
f 43/62/23 40/59/23 44/63/23 
f 41/60/23 44/63/23 39/58/23 
f 44/63/23 41/60/23 43/62/23 
# 0 polygons - 8 triangles

#
# object Obj_000010
#

v  1.730717 1.100000 -0.630244
v  1.821361 1.142102 -0.686923
v  1.730717 1.250000 -0.630244
v  1.985083 1.100000 -0.789298
v  1.880713 1.142102 -0.724036
v  1.880713 1.212101 -0.724036
v  1.821361 1.212101 -0.686923
v  1.985083 1.250000 -0.789298
# 8 vertices

vn 0.530177 -0.000001 0.847887
vn 0.530178 -0.000002 0.847886
vn 0.530177 0.000001 0.847887
vn 0.530179 -0.000000 0.847886
vn 0.530179 0.000000 0.847886
vn 0.530178 0.000002 0.847886
vn 0.530179 0.000001 0.847886
# 7 vertex normals

vt 0.000000 39.370079 0.000000
vt 4.208871 41.027618 0.000000
vt 0.000000 45.275589 0.000000
vt 11.811024 39.370079 0.000000
vt 6.964777 41.027618 0.000000
vt 6.964777 43.783524 0.000000
vt 4.208871 43.783524 0.000000
vt 11.811024 45.275589 0.000000
# 8 texture coords

o Obj_000010
g Obj_000010
usemtl Material13
s 1
f 45/64/24 46/65/25 47/66/26 
f 46/65/25 45/64/24 48/67/27 
f 46/65/25 48/67/27 49/68/28 
f 49/68/28 48/67/27 50/69/27 
f 47/66/26 51/70/29 52/71/30 
f 51/70/29 47/66/26 46/65/25 
f 52/71/30 51/70/29 50/69/27 
f 52/71/30 50/69/27 48/67/27 
# 0 polygons - 8 triangles

#
# object Obj_000009
#

v  1.880713 1.142102 -0.724036
v  1.821361 1.212101 -0.686923
v  1.821361 1.142102 -0.686923
v  1.880713 1.212101 -0.724036
# 4 vertices

vn 0.530179 0.000000 0.847886
# 1 vertex normals

vt 6.964777 41.027618 0.000000
vt 4.208871 43.783524 0.000000
vt 4.208871 41.027618 0.000000
vt 6.964777 43.783524 0.000000
# 4 texture coords

o Obj_000009
g Obj_000009
usemtl _auto_2
s 1
f 53/72/31 54/73/31 55/74/31 
f 54/73/31 53/72/31 56/75/31 
# 0 polygons - 2 triangles

#
# object Obj_000008
#

v  -0.571489 2.310475 0.357325
v  -1.636593 0.480475 0.910095
v  -0.571489 0.480475 0.357325
v  -1.636593 2.310475 0.910095
v  -1.641200 2.310475 0.901219
v  -1.641200 0.480475 0.901219
v  -0.576097 0.480475 0.348449
v  -0.576097 2.310475 0.348449
# 8 vertices

vn 0.460641 -0.000000 0.887586
vn 0.460641 0.000000 0.887586
vn -0.887554 0.000000 0.460704
vn 0.000000 -1.000000 -0.000000
vn 0.887554 0.000000 -0.460704
vn 0.000000 1.000000 -0.000000
vn -0.460641 -0.000000 -0.887586
vn -0.460641 0.000000 -0.887586
# 8 vertex normals

vt 1.000000 1.000000 0.984197
vt 0.004307 -0.000000 -0.000000
vt 1.000000 -0.000000 0.984197
vt 0.004307 1.000000 -0.000000
vt 0.984197 1.000000 0.000000
vt 1.000000 -0.000000 0.004307
vt 1.000000 1.000000 0.004307
vt 0.984197 -0.000000 0.000000
vt 0.995693 -0.000000 -0.000000
vt 1.000000 0.015803 -0.000000
vt 0.000000 0.984197 -0.000000
vt 1.000000 -0.000000 0.995693
vt 0.984197 1.000000 1.000000
vt 0.984197 -0.000000 1.000000
vt 1.000000 1.000000 0.995693
vt 0.004307 -0.000000 1.000000
vt 0.995693 1.000000 1.000000
vt 0.000000 0.015803 1.000000
vt 1.000000 0.984197 1.000000
vt 1.000000 1.000000 0.015803
vt 1.000000 -0.000000 0.015803
vt 0.004307 1.000000 1.000000
# 22 texture coords

o Obj_000008
g Obj_000008
usemtl Material__25
s 1
f 57/76/32 58/77/32 59/78/33 
f 58/77/32 57/76/32 60/79/33 
f 61/80/34 58/81/34 60/82/34 
f 58/81/34 61/80/34 62/83/34 
f 63/79/35 58/84/35 62/85/35 
f 58/84/35 63/79/35 59/86/35 
f 63/87/36 57/88/36 59/89/36 
f 57/88/36 63/87/36 64/90/36 
f 60/91/37 64/92/37 61/93/37 
f 64/92/37 60/91/37 57/94/37 
f 61/95/38 63/91/38 62/96/39 
f 63/91/38 61/95/38 64/97/39 
# 0 polygons - 12 triangles

#
# object Obj_000007
#

v  0.715510 2.310475 -0.310605
v  -0.349593 0.480475 0.242165
v  0.715510 0.480475 -0.310605
v  -0.349593 2.310475 0.242165
v  -0.354199 2.310475 0.233289
v  -0.354199 0.480475 0.233289
v  0.710904 0.480475 -0.319481
v  0.710904 2.310475 -0.319481
# 8 vertices

vn 0.460641 -0.000000 0.887586
vn 0.460641 0.000000 0.887586
vn -0.887593 0.000000 0.460629
vn 0.000000 -1.000000 -0.000000
vn 0.887593 0.000000 -0.460628
vn 0.000000 1.000000 -0.000000
vn -0.460641 -0.000000 -0.887586
vn -0.460641 0.000000 -0.887586
# 8 vertex normals

vt 1.000000 1.000000 0.984197
vt 0.004306 0.000000 0.000000
vt 1.000000 0.000000 0.984197
vt 0.004306 1.000000 0.000000
vt 0.984197 1.000000 0.000000
vt 1.000000 0.000000 0.004306
vt 1.000000 1.000000 0.004306
vt 0.984197 0.000000 0.000000
vt 0.995694 0.000000 0.000000
vt 1.000000 0.015803 0.000000
vt 0.000000 0.984197 0.000000
vt 1.000000 0.000000 0.995694
vt 0.984197 1.000000 1.000000
vt 0.984197 0.000000 1.000000
vt 1.000000 1.000000 0.995694
vt 0.004306 0.000000 1.000000
vt 0.995694 1.000000 1.000000
vt 0.000000 0.015803 1.000000
vt 1.000000 0.984197 1.000000
vt 1.000000 1.000000 0.015803
vt 1.000000 0.000000 0.015803
vt 0.004306 1.000000 1.000000
# 22 texture coords

o Obj_000007
g Obj_000007
usemtl Material__26
s 1
f 65/98/40 66/99/40 67/100/41 
f 66/99/40 65/98/40 68/101/41 
f 69/102/42 66/103/42 68/104/42 
f 66/103/42 69/102/42 70/105/42 
f 71/101/43 66/106/43 70/107/43 
f 66/106/43 71/101/43 67/108/43 
f 71/109/44 65/110/44 67/111/44 
f 65/110/44 71/109/44 72/112/44 
f 68/113/45 72/114/45 69/115/45 
f 72/114/45 68/113/45 65/116/45 
f 69/117/46 71/113/46 70/118/47 
f 71/113/46 69/117/46 72/119/47 
# 0 polygons - 12 triangles

#
# object Obj_000006
#

v  2.002511 2.310475 -0.978535
v  0.937407 0.480475 -0.425765
v  2.002511 0.480475 -0.978535
v  0.937407 2.310475 -0.425765
v  0.932800 2.310475 -0.434641
v  0.932800 0.480475 -0.434641
v  1.997904 0.480475 -0.987411
v  1.997904 2.310475 -0.987411
# 8 vertices

vn 0.460641 -0.000000 0.887586
vn 0.460641 0.000000 0.887586
vn -0.887554 -0.000000 0.460703
vn -0.887554 0.000000 0.460703
vn 0.000000 -1.000000 -0.000000
vn 0.887554 0.000000 -0.460704
vn 0.000000 1.000000 -0.000000
vn -0.460641 0.000000 -0.887586
# 8 vertex normals

vt 1.000000 1.000000 0.984197
vt 0.004308 -0.000000 -0.000000
vt 1.000000 -0.000000 0.984197
vt 0.004308 1.000000 -0.000000
vt 0.984197 1.000000 0.000000
vt 1.000000 -0.000000 0.004308
vt 1.000000 1.000000 0.004308
vt 0.984197 -0.000000 0.000000
vt 0.004307 1.000000 -0.000000
vt 0.995692 -0.000000 -0.000000
vt 1.000000 0.015803 -0.000000
vt -0.000000 0.984197 -0.000000
vt 1.000000 -0.000000 0.995693
vt 0.984197 1.000000 1.000000
vt 0.984197 -0.000000 1.000000
vt 1.000000 1.000000 0.995693
vt 0.004308 -0.000000 1.000000
vt 0.995693 1.000000 1.000000
vt 0.000000 0.015803 1.000000
vt 1.000000 0.984197 1.000000
vt 1.000000 1.000000 0.015803
vt 0.004307 -0.000000 1.000000
vt 1.000000 -0.000000 0.015803
vt 0.004307 1.000000 1.000000
# 24 texture coords

o Obj_000006
g Obj_000006
usemtl Material__27
s 1
f 73/120/48 74/121/48 75/122/49 
f 74/121/48 73/120/48 76/123/49 
f 77/124/50 74/125/50 76/126/51 
f 74/125/50 77/124/50 78/127/51 
f 79/128/52 74/129/52 78/130/52 
f 74/129/52 79/128/52 75/131/52 
f 79/132/53 73/133/53 75/134/53 
f 73/133/53 79/132/53 80/135/53 
f 76/136/54 80/137/54 77/138/54 
f 80/137/54 76/136/54 73/139/54 
f 77/140/55 79/141/55 78/142/55 
f 79/141/55 77/140/55 80/143/55 
# 0 polygons - 12 triangles

#
# object Obj_000005
#

v  1.950811 2.310475 -1.078128
v  0.885708 0.480475 -0.525358
v  1.950811 0.480475 -1.078128
v  0.885708 2.310475 -0.525358
v  0.881102 2.310475 -0.534234
v  0.881102 0.480475 -0.534234
v  1.946205 0.480475 -1.087003
v  1.946205 2.310475 -1.087003
# 8 vertices

vn 0.460641 -0.000000 0.887586
vn 0.460641 0.000000 0.887586
vn -0.887593 0.000000 0.460628
vn 0.000000 -1.000000 -0.000000
vn 0.887593 0.000000 -0.460629
vn 0.000000 1.000000 -0.000000
vn -0.460641 0.000000 -0.887586
# 7 vertex normals

vt 1.000000 1.000000 0.984197
vt 0.004306 0.000000 0.000000
vt 1.000000 0.000000 0.984197
vt 0.004306 1.000000 0.000000
vt 0.984197 1.000000 0.000000
vt 1.000000 0.000000 0.004306
vt 1.000000 1.000000 0.004306
vt 0.984197 0.000000 0.000000
vt 0.995694 0.000000 0.000000
vt 1.000000 0.015803 0.000000
vt 0.000000 0.984197 0.000000
vt 1.000000 0.000000 0.995694
vt 0.984197 1.000000 1.000000
vt 0.984197 0.000000 1.000000
vt 1.000000 1.000000 0.995694
vt 0.004306 0.000000 1.000000
vt 0.995694 1.000000 1.000000
vt 0.000000 0.015803 1.000000
vt 1.000000 0.984197 1.000000
vt 1.000000 1.000000 0.015803
vt 1.000000 0.000000 0.015803
vt 0.004306 1.000000 1.000000
# 22 texture coords

o Obj_000005
g Obj_000005
usemtl Material__28
s 1
f 81/144/56 82/145/56 83/146/57 
f 82/145/56 81/144/56 84/147/57 
f 85/148/58 82/149/58 84/150/58 
f 82/149/58 85/148/58 86/151/58 
f 87/147/59 82/152/59 86/153/59 
f 82/152/59 87/147/59 83/154/59 
f 87/155/60 81/156/60 83/157/60 
f 81/156/60 87/155/60 88/158/60 
f 84/159/61 88/160/61 85/161/61 
f 88/160/61 84/159/61 81/162/61 
f 85/163/62 87/159/62 86/164/62 
f 87/159/62 85/163/62 88/165/62 
# 0 polygons - 12 triangles

#
# object Obj_000004
#

v  -0.623189 2.310475 0.257732
v  -1.688293 0.480475 0.810502
v  -0.623189 0.480475 0.257732
v  -1.688293 2.310475 0.810502
v  -1.692899 2.310475 0.801626
v  -1.692899 0.480475 0.801626
v  -0.627795 0.480475 0.248857
v  -0.627795 2.310475 0.248857
# 8 vertices

vn 0.460641 0.000000 0.887586
vn -0.887593 0.000000 0.460629
vn 0.000000 -1.000000 -0.000000
vn 0.887593 0.000000 -0.460629
vn 0.000000 1.000000 -0.000000
vn -0.460641 0.000000 -0.887586
# 6 vertex normals

vt 1.000000 1.000000 0.984197
vt 0.004306 0.000000 -0.000000
vt 1.000000 0.000000 0.984197
vt 0.004306 1.000000 -0.000000
vt 0.984197 1.000000 0.000000
vt 1.000000 0.000000 0.004306
vt 1.000000 1.000000 0.004306
vt 0.984197 0.000000 0.000000
vt 0.004306 1.000000 0.000000
vt 0.995694 -0.000000 0.000000
vt 1.000000 0.015803 0.000000
vt 0.000000 0.984197 0.000000
vt 1.000000 0.000000 0.995694
vt 0.984197 1.000000 1.000000
vt 0.984197 0.000000 1.000000
vt 1.000000 1.000000 0.995694
vt 0.004306 -0.000000 1.000000
vt 0.995694 1.000000 1.000000
vt 0.000000 0.015803 1.000000
vt 1.000000 0.984197 1.000000
vt 1.000000 1.000000 0.015803
vt 0.004306 0.000000 1.000000
vt 1.000000 0.000000 0.015803
vt 0.004306 1.000000 1.000000
# 24 texture coords

o Obj_000004
g Obj_000004
usemtl Material__30
s 1
f 89/166/63 90/167/63 91/168/63 
f 90/167/63 89/166/63 92/169/63 
f 93/170/64 90/171/64 92/172/64 
f 90/171/64 93/170/64 94/173/64 
f 95/174/65 90/175/65 94/176/65 
f 90/175/65 95/174/65 91/177/65 
f 95/178/66 89/179/66 91/180/66 
f 89/179/66 95/178/66 96/181/66 
f 92/182/67 96/183/67 93/184/67 
f 96/183/67 92/182/67 89/185/67 
f 93/186/68 95/187/68 94/188/68 
f 95/187/68 93/186/68 96/189/68 
# 0 polygons - 12 triangles

#
# object Obj_000003
#

v  0.663811 2.310475 -0.410198
v  -0.401293 0.480475 0.142572
v  0.663811 0.480475 -0.410198
v  -0.401293 2.310475 0.142572
v  -0.405899 2.310475 0.133696
v  -0.405899 0.480475 0.133696
v  0.659204 0.480475 -0.419073
v  0.659204 2.310475 -0.419073
# 8 vertices

vn 0.460641 -0.000000 0.887586
vn 0.460641 0.000000 0.887586
vn -0.887593 0.000000 0.460629
vn 0.000000 -1.000000 -0.000000
vn 0.887593 0.000000 -0.460628
vn 0.000000 1.000000 -0.000000
vn -0.460641 -0.000000 -0.887586
vn -0.460641 0.000000 -0.887586
# 8 vertex normals

vt 1.000000 1.000000 0.984197
vt 0.004306 0.000000 -0.000000
vt 1.000000 0.000000 0.984197
vt 0.004306 1.000000 -0.000000
vt 0.984197 1.000000 0.000000
vt 1.000000 0.000000 0.004306
vt 1.000000 1.000000 0.004306
vt 0.984197 0.000000 0.000000
vt 0.004306 1.000000 0.000000
vt 0.995694 -0.000000 0.000000
vt 1.000000 0.015803 0.000000
vt 0.000000 0.984197 0.000000
vt 1.000000 0.000000 0.995694
vt 0.984197 1.000000 1.000000
vt 0.984197 0.000000 1.000000
vt 1.000000 1.000000 0.995694
vt 0.004306 -0.000000 1.000000
vt 0.995694 1.000000 1.000000
vt 0.000000 0.015803 1.000000
vt 1.000000 0.984197 1.000000
vt 1.000000 1.000000 0.015803
vt 0.004306 0.000000 1.000000
vt 1.000000 0.000000 0.015803
vt 0.004306 1.000000 1.000000
# 24 texture coords

o Obj_000003
g Obj_000003
usemtl Material__29
s 1
f 97/190/69 98/191/69 99/192/70 
f 98/191/69 97/190/69 100/193/70 
f 101/194/71 98/195/71 100/196/71 
f 98/195/71 101/194/71 102/197/71 
f 103/198/72 98/199/72 102/200/72 
f 98/199/72 103/198/72 99/201/72 
f 103/202/73 97/203/73 99/204/73 
f 97/203/73 103/202/73 104/205/73 
f 100/206/74 104/207/74 101/208/74 
f 104/207/74 100/206/74 97/209/74 
f 101/210/75 103/211/75 102/212/76 
f 103/211/75 101/210/75 104/213/76 
# 0 polygons - 12 triangles

#
# object Obj_000002
#

v  -3.768883 0.100000 -2.674968
v  -3.768883 0.000000 2.655032
v  -3.768883 0.100000 2.655032
v  -3.768883 0.000000 -2.674968
v  3.753957 0.000000 -2.674968
v  3.753957 0.100000 -2.674968
v  3.753957 0.100000 2.655032
v  3.753957 0.000000 2.655032
# 8 vertices

vn -1.000000 0.000000 -0.000000
vn 0.000000 0.000000 -1.000000
vn 1.000000 0.000000 -0.000000
vn 0.000000 1.000000 -0.000000
vn 0.000000 0.000000 1.000000
vn 0.000000 -1.000000 -0.000000
# 6 vertex normals

vt -209.842514 3.937008 0.000000
vt 0.000000 0.000000 0.000000
vt 0.000000 3.937008 0.000000
vt -209.842514 0.000000 0.000000
vt -189.370071 0.000000 0.000000
vt -189.370071 3.937008 0.000000
vt 209.842514 0.000000 0.000000
vt 209.842514 3.937008 0.000000
vt 189.370071 0.000000 0.000000
vt 0.000000 209.842514 0.000000
vt 189.370071 209.842514 0.000000
vt 189.370071 3.937008 0.000000
vt -189.370071 209.842514 0.000000
# 13 texture coords

o Obj_000002
g Obj_000002
usemtl Material23
s 1
f 105/214/77 106/215/77 107/216/77 
f 106/215/77 105/214/77 108/217/77 
f 105/216/78 109/218/78 108/215/78 
f 109/218/78 105/216/78 110/219/78 
f 109/220/79 111/216/79 112/215/79 
f 111/216/79 109/220/79 110/221/79 
f 111/222/80 105/223/80 107/215/80 
f 105/223/80 111/222/80 110/224/80 
f 111/225/81 106/215/81 112/222/81 
f 106/215/81 111/225/81 107/216/81 
f 109/226/82 106/215/82 108/223/82 
f 106/215/82 109/226/82 112/218/82 
# 0 polygons - 12 triangles

#
# object Obj_000001
#

v  28.342672 0.000000 -19.247211
v  28.341873 0.000000 -18.038668
v  28.341873 0.000000 -19.247211
v  23.180872 0.000000 -18.038668
v  23.181671 0.000000 -18.037867
v  23.181671 0.000000 -15.358668
v  28.342672 0.000000 -18.037867
v  23.180872 0.000000 -15.357868
v  28.341873 0.000000 -15.357868
v  28.342672 0.000000 -15.358668
v  28.341873 0.000000 -13.778668
v  24.294498 0.000000 -13.777868
v  24.294498 0.000000 -13.778668
v  28.342672 0.000000 -13.777868
# 14 vertices

vn 0.000000 -1.000000 -0.000000
# 1 vertex normals

vt -70.979843 74.409355 0.000000
vt -70.976700 69.651306 0.000000
vt -70.976700 74.409355 0.000000
vt -50.657799 69.651306 0.000000
vt -50.660950 69.648163 0.000000
vt -50.660950 59.100128 0.000000
vt -70.979843 69.648163 0.000000
vt -50.657799 59.096977 0.000000
vt -70.976700 59.096977 0.000000
vt -70.979843 59.100128 0.000000
vt -70.976700 52.879658 0.000000
vt -55.042156 52.876507 0.000000
vt -55.042156 52.879658 0.000000
vt -70.979843 52.876507 0.000000
# 14 texture coords

o Obj_000001
g Obj_000001
usemtl _auto_2
s 1
f 113/227/83 114/228/83 115/229/83 
f 116/230/83 117/231/83 118/232/83 
f 117/231/83 116/230/83 114/228/83 
f 117/231/83 114/228/83 119/233/83 
f 119/233/83 114/228/83 113/227/83 
f 120/234/83 118/232/83 121/235/83 
f 118/232/83 120/234/83 116/230/83 
f 121/235/83 118/232/83 122/236/83 
f 121/235/83 122/236/83 123/237/83 
f 123/237/83 124/238/83 125/239/83 
f 124/238/83 123/237/83 126/240/83 
f 126/240/83 123/237/83 122/236/83 
# 0 polygons - 12 triangles

