# 3ds Max Wavefront OBJ Exporter v0.99 - (c)2007 guruware
# File Created: 05.12.2022 15:07:56

mtllib foto elena.mtl

#
# object Plane002
#

v  168.8523 0.0000 -40.9591
v  168.8523 0.0000 -37.6212
v  169.4949 0.0000 -37.6212
v  169.4949 0.0000 -40.9591
v  170.1375 0.0000 -37.6212
v  170.1375 0.0000 -40.9591
v  170.7800 0.0000 -37.6212
v  170.7800 0.0000 -40.9591
v  171.4226 0.0000 -37.6212
v  171.4226 0.0000 -40.9591
v  168.8523 0.0000 -44.2970
v  169.4949 0.0000 -44.2970
v  170.1375 0.0000 -44.2970
v  170.7800 0.0000 -44.2970
v  171.4226 0.0000 -44.2970
v  168.8523 0.0000 -47.6348
v  169.4949 0.0000 -47.6348
v  170.1375 0.0000 -47.6348
v  170.7800 0.0000 -47.6348
v  171.4226 0.0000 -47.6348
v  168.8523 0.0000 -50.9727
v  169.4949 0.0000 -50.9727
v  170.1375 0.0000 -50.9727
v  170.7800 0.0000 -50.9727
v  171.4226 0.0000 -50.9727
# 25 vertices

vn 0.0000 1.0000 -0.0000
# 1 vertex normals

vt 0.0000 0.2500 0.0000
vt 0.0000 0.0000 0.0000
vt 0.2500 0.0000 0.0000
vt 0.2500 0.2500 0.0000
vt 0.5000 0.0000 0.0000
vt 0.5000 0.2500 0.0000
vt 0.7500 0.0000 0.0000
vt 0.7500 0.2500 0.0000
vt 1.0000 0.0000 0.0000
vt 1.0000 0.2500 0.0000
vt 0.0000 0.5000 0.0000
vt 0.2500 0.5000 0.0000
vt 0.5000 0.5000 0.0000
vt 0.7500 0.5000 0.0000
vt 1.0000 0.5000 0.0000
vt 0.0000 0.7500 0.0000
vt 0.2500 0.7500 0.0000
vt 0.5000 0.7500 0.0000
vt 0.7500 0.7500 0.0000
vt 1.0000 0.7500 0.0000
vt 0.0000 1.0000 0.0000
vt 0.2500 1.0000 0.0000
vt 0.5000 1.0000 0.0000
vt 0.7500 1.0000 0.0000
vt 1.0000 1.0000 0.0000
# 25 texture coords

o Plane002
g Plane002
usemtl wire_166229229
s 1
f 1/1/1 2/2/1 3/3/1 4/4/1 
f 4/4/1 3/3/1 5/5/1 6/6/1 
f 6/6/1 5/5/1 7/7/1 8/8/1 
f 8/8/1 7/7/1 9/9/1 10/10/1 
f 11/11/1 1/1/1 4/4/1 12/12/1 
f 12/12/1 4/4/1 6/6/1 13/13/1 
f 13/13/1 6/6/1 8/8/1 14/14/1 
f 14/14/1 8/8/1 10/10/1 15/15/1 
f 16/16/1 11/11/1 12/12/1 17/17/1 
f 17/17/1 12/12/1 13/13/1 18/18/1 
f 18/18/1 13/13/1 14/14/1 19/19/1 
f 19/19/1 14/14/1 15/15/1 20/20/1 
f 21/21/1 16/16/1 17/17/1 22/22/1 
f 22/22/1 17/17/1 18/18/1 23/23/1 
f 23/23/1 18/18/1 19/19/1 24/24/1 
f 24/24/1 19/19/1 20/20/1 25/25/1 
# 16 polygons

#
# object Plane003
#

v  -225.9843 0.0000 84.6457
v  -225.9843 0.0000 169.2913
v  -112.9921 0.0000 169.2913
v  -112.9921 0.0000 84.6457
v  0.0000 0.0000 169.2913
v  0.0000 0.0000 84.6457
v  112.9921 0.0000 169.2913
v  112.9921 0.0000 84.6457
v  225.9843 0.0000 169.2913
v  225.9843 0.0000 84.6457
v  -225.9843 0.0000 -0.0000
v  -112.9921 0.0000 -0.0000
v  0.0000 0.0000 -0.0000
v  112.9921 0.0000 -0.0000
v  225.9843 0.0000 -0.0000
v  -225.9843 0.0000 -84.6457
v  -112.9921 0.0000 -84.6457
v  0.0000 0.0000 -84.6457
v  112.9921 0.0000 -84.6457
v  225.9843 0.0000 -84.6457
v  -225.9843 0.0000 -169.2913
v  -112.9921 0.0000 -169.2913
v  0.0000 0.0000 -169.2913
v  112.9921 0.0000 -169.2913
v  225.9843 0.0000 -169.2913
# 25 vertices

vn 0.0000 1.0000 -0.0000
# 1 vertex normals

vt 0.0000 0.2500 0.0000
vt 0.0000 0.0000 0.0000
vt 0.2500 0.0000 0.0000
vt 0.2500 0.2500 0.0000
vt 0.5000 0.0000 0.0000
vt 0.5000 0.2500 0.0000
vt 0.7500 0.0000 0.0000
vt 0.7500 0.2500 0.0000
vt 1.0000 0.0000 0.0000
vt 1.0000 0.2500 0.0000
vt 0.0000 0.5000 0.0000
vt 0.2500 0.5000 0.0000
vt 0.5000 0.5000 0.0000
vt 0.7500 0.5000 0.0000
vt 1.0000 0.5000 0.0000
vt 0.0000 0.7500 0.0000
vt 0.2500 0.7500 0.0000
vt 0.5000 0.7500 0.0000
vt 0.7500 0.7500 0.0000
vt 1.0000 0.7500 0.0000
vt 0.0000 1.0000 0.0000
vt 0.2500 1.0000 0.0000
vt 0.5000 1.0000 0.0000
vt 0.7500 1.0000 0.0000
vt 1.0000 1.0000 0.0000
# 25 texture coords

o Plane003
g Plane003
usemtl Material__25
s 1
f 26/26/2 27/27/2 28/28/2 29/29/2 
f 29/29/2 28/28/2 30/30/2 31/31/2 
f 31/31/2 30/30/2 32/32/2 33/33/2 
f 33/33/2 32/32/2 34/34/2 35/35/2 
f 36/36/2 26/26/2 29/29/2 37/37/2 
f 37/37/2 29/29/2 31/31/2 38/38/2 
f 38/38/2 31/31/2 33/33/2 39/39/2 
f 39/39/2 33/33/2 35/35/2 40/40/2 
f 41/41/2 36/36/2 37/37/2 42/42/2 
f 42/42/2 37/37/2 38/38/2 43/43/2 
f 43/43/2 38/38/2 39/39/2 44/44/2 
f 44/44/2 39/39/2 40/40/2 45/45/2 
f 46/46/2 41/41/2 42/42/2 47/47/2 
f 47/47/2 42/42/2 43/43/2 48/48/2 
f 48/48/2 43/43/2 44/44/2 49/49/2 
f 49/49/2 44/44/2 45/45/2 50/50/2 
# 16 polygons

